<!-- icon666.com - MILLIONS vector ICONS FREE --><svg version="1.1" id="Capa_1" xmlns="http://www.w3.org/2000/svg" xmlns:xlink="http://www.w3.org/1999/xlink" x="0px" y="0px" viewBox="0 0 512 512" style="enable-background:new 0 0 512 512;" xml:space="preserve"><path style="fill:#AECC40;" d="M408.733,351.064c1.7-0.902,2.405-2.976,1.557-4.58c-2.727-5.156-9.232-16.389-19.281-27.297 c33.016,1.105,64.971-22.156,74.24-29.538c1.514-1.205,1.808-3.349,0.65-4.733c-4.987-5.957-18.846-21.11-38.004-30.726 c0.856-0.078,1.724-0.168,2.616-0.284c38.547-5.017,66.214-44.347,73.351-55.514c1.039-1.626,0.579-3.687-1.016-4.549 c-4.788-2.588-15.281-7.764-28.578-11.386c23.79-24.579,28.415-62.554,29.278-73.972c0.141-1.871-1.29-3.368-3.16-3.303 c-9.139,0.315-23.91-4.809-47.071,7.708c26.767-24.789,30.266-69.877,30.928-81.898c0.103-1.871-1.361-3.335-3.232-3.232 c-12.021,0.661-57.11,4.16-81.898,30.928c12.517-23.161,7.394-37.932,7.708-47.071c0.064-1.87-1.432-3.302-3.303-3.16 c-11.418,0.863-49.393,5.488-73.972,29.278c-3.622-13.297-8.798-23.789-11.386-28.578c-0.862-1.595-2.922-2.056-4.549-1.016 c-11.167,7.137-50.497,34.804-55.514,73.351c-0.116,0.891-0.207,1.759-0.284,2.616c-9.616-19.158-24.769-33.018-30.726-38.004 c-1.384-1.158-3.527-0.864-4.733,0.65c-7.382,9.269-30.643,41.225-29.538,74.24c-10.908-10.049-22.141-16.554-27.297-19.281 c-1.604-0.848-3.678-0.143-4.58,1.557c-5.688,10.72-23.407,48.008-14.061,80.396c-8.864-3.703-16.539-5.821-20.658-6.814 c-1.786-0.431-3.67,0.733-4.16,2.57c-2.475,9.282-8.55,36.685-2.177,61.986c-7.242-2.1-13.294-3.224-16.795-3.769 c-1.808-0.281-3.578,1.041-3.907,2.921c-2.261,12.904-8.296,59.859,17.586,86.694c24.862,25.777,49.583,7.126,49.583,7.126 l11.276,11.276c0,0-18.651,24.72,7.126,49.583c26.834,25.882,73.789,19.847,86.694,17.586c1.879-0.329,3.202-2.099,2.921-3.907 c-0.545-3.502-1.669-9.554-3.769-16.795c25.301,6.373,52.705,0.298,61.986-2.177c1.837-0.49,3-2.374,2.57-4.16 c-0.993-4.119-3.111-11.795-6.814-20.659C360.725,374.471,398.013,356.751,408.733,351.064z"></path><path style="fill:#BC8E82;" d="M50.888,499.166l189.964-190.331l-37.883-37.883L12.809,461.111c-6.98,6.98-6.98,18.297,0,25.278 l12.789,12.789C32.583,506.163,43.91,506.157,50.888,499.166z"></path><path style="fill:#AF8077;" d="M240.852,308.835l-24.521-24.521L26.367,474.645c-4.862,4.871-11.831,6.341-17.975,4.429 c0.832,2.675,2.298,5.196,4.417,7.315l12.789,12.789c6.985,6.985,18.312,6.979,25.29-0.012L240.852,308.835z"></path><path style="fill:#9EB54B;" d="M312.412,352.565c-1.783-3.623-5.236-10.142-10.33-17.671c0.438,0.027,0.876,0.054,1.324,0.074 c38.364,1.646,72.063-32.808,80.933-42.715c1.292-1.443,1.199-3.577-0.204-4.712c-3.492-2.824-10.503-8.099-19.808-13.186 c29.63-4.928,54.861-25.012,62.732-31.848c1.441-1.252,1.528-3.332,0.192-4.594c-4.703-4.441-16.164-14.437-31.53-22.363 c32.968-11.964,53.577-45.822,59.196-56.076c0.902-1.647,0.218-3.601-1.511-4.314c-5.985-2.47-20.127-7.697-37.198-9.883 c20.592-24.94,24.117-60.07,24.716-70.968c0.103-1.871-1.361-3.335-3.232-3.232c-10.898,0.599-46.028,4.124-70.968,24.716 c-2.186-17.071-7.412-31.213-9.883-37.198c-0.714-1.729-2.668-2.413-4.314-1.511c-10.254,5.618-44.111,26.228-56.076,59.196 c-7.926-15.367-17.922-26.827-22.363-31.53c-1.262-1.336-3.342-1.249-4.594,0.192c-6.836,7.871-26.919,33.102-31.848,62.731 c-5.087-9.306-10.361-16.316-13.186-19.808c-1.135-1.403-3.269-1.496-4.712-0.204c-9.907,8.869-44.361,42.569-42.715,80.933 c0.019,0.448,0.046,0.887,0.074,1.324c-7.529-5.094-14.049-8.546-17.671-10.33c-1.681-0.828-3.602-0.054-4.24,1.708 c-4.383,12.099-18.237,56.786,1.904,91.23c12.966,22.173,29.293,24.553,38.661,23.715c-0.839,9.368,1.542,25.695,23.715,38.661 c34.443,20.141,79.131,6.288,91.23,1.904C312.467,356.167,313.24,354.246,312.412,352.565z"></path><g><polygon style="fill:#9E736C;" points="79.465,394.455 117.48,432.47 140.592,409.311 102.6,371.319 "></polygon><polygon style="fill:#9E736C;" points="26.489,447.431 64.558,485.5 87.67,462.341 49.625,424.295 "></polygon></g><g><polygon style="fill:#966B66;" points="140.581,409.299 116.06,384.778 92.946,407.936 117.468,432.457 "></polygon><polygon style="fill:#966B66;" points="87.656,462.326 63.135,437.805 40.022,460.963 64.543,485.485 "></polygon></g><path style="fill:#B4CC5C;" d="M288.561,328.554c-3.119-2.748-9.053-7.661-16.971-12.845c35.835-9.466,58.979-45.348,65.115-55.909 c0.943-1.624,0.308-3.594-1.402-4.351c-4.409-1.951-13.302-5.545-24.581-8.333c2.731-1.443,5.563-3.22,8.49-5.395 c32.025-23.8,36.786-70.343,37.493-83.191c0.103-1.871-1.361-3.335-3.232-3.232c-12.849,0.707-59.392,5.468-83.191,37.493 c-2.034,2.737-3.71,5.388-5.1,7.954c-2.744-10.742-6.161-19.202-8.046-23.464c-0.757-1.711-2.727-2.346-4.351-1.402 c-10.561,6.136-46.443,29.279-55.909,65.115c-5.184-7.918-10.097-13.852-12.845-16.971c-1.239-1.406-3.309-1.423-4.571-0.038 c-8.664,9.514-38.506,45.547-33.015,85.068c0.364,2.619,0.844,5.051,1.417,7.322c-15.263,26.863,2.27,44.257,2.27,44.257 s16.725,16.89,42.712,3.138c3.181,1.008,6.726,1.82,10.689,2.371c39.52,5.491,75.554-24.351,85.068-33.015 C289.985,331.863,289.968,329.793,288.561,328.554z"></path><path d="M170.607,389.952c2.381,3.736,5.336,7.329,8.877,10.744c18.462,17.806,44.988,21.954,65.692,21.954 c12.109,0,22.231-1.42,27.575-2.357c5.937-1.039,10.024-6.667,9.108-12.547c-0.256-1.643-0.611-3.69-1.094-6.056 c22.726,2.777,44.511-1.951,53.771-4.418c5.796-1.547,9.38-7.499,7.988-13.269c-0.496-2.056-1.315-5.183-2.518-9.003 c11.778,1.13,24.713-0.188,38.63-3.947c15.238-4.115,27.623-10.092,33.653-13.291c5.401-2.868,7.512-9.519,4.705-14.826 c-2.035-3.847-5.631-10.112-10.784-17.153c10.921-1.7,22.367-5.509,34.199-11.392c13.766-6.844,24.431-14.722,29.563-18.808 c2.348-1.87,3.865-4.637,4.164-7.593c0.293-2.908-0.568-5.73-2.422-7.943c-3.797-4.535-12.263-13.884-24.123-22.588 c32.964-11.987,55.769-44.2,62.661-54.982c1.649-2.581,2.162-5.733,1.407-8.648c-0.735-2.84-2.633-5.266-5.209-6.659 c-3.797-2.051-10.497-5.387-19.095-8.507c18.988-25.845,22.96-59.119,23.752-69.605c0.231-3.041-0.834-6.032-2.919-8.205 c-2.083-2.171-5.027-3.376-8.066-3.251c-1.517,0.045-3.486-0.11-5.773-0.297c-5.147-0.422-11.687-0.956-19.693,0.246 c12.692-22.673,16.25-49.61,17.16-66.142c0.167-3.042-0.958-6.008-3.087-8.137s-5.094-3.255-8.137-3.086 c-16.532,0.91-43.468,4.467-66.141,17.16c1.203-8.007,0.668-14.548,0.246-19.695c-0.187-2.286-0.349-4.262-0.297-5.774 c0.104-3.041-1.081-5.98-3.251-8.063c-2.172-2.086-5.155-3.152-8.205-2.921c-10.488,0.793-43.762,4.766-69.606,23.753 c-3.12-8.6-6.456-15.299-8.507-19.096c-1.392-2.575-3.818-4.472-6.657-5.208c-2.916-0.756-6.069-0.243-8.649,1.407 c-10.783,6.891-42.996,29.698-54.982,62.661c-8.704-11.86-18.053-20.326-22.588-24.123c-2.217-1.856-5.041-2.714-7.945-2.422 c-2.955,0.298-5.722,1.816-7.59,4.162c-4.087,5.132-11.965,15.796-18.81,29.563c-5.883,11.831-9.692,23.278-11.392,34.199 c-7.042-5.153-13.306-8.748-17.152-10.782c-5.309-2.809-11.96-0.697-14.828,4.705c-3.198,6.026-9.176,18.41-13.291,33.65 c-3.759,13.918-5.076,26.854-3.947,38.63c-3.82-1.203-6.946-2.022-9.003-2.518c-5.768-1.392-11.722,2.193-13.267,7.989 c-2.468,9.259-7.195,31.042-4.419,53.771c-2.366-0.483-4.412-0.838-6.057-1.094c-5.874-0.907-11.504,3.171-12.546,9.107 c-2.537,14.482-8.622,64.011,19.598,93.269c3.368,3.491,6.91,6.415,10.591,8.779l0,0L7.445,455.747l0,0 c-9.927,9.927-9.927,26.079,0,36.006l12.79,12.79c4.809,4.809,11.201,7.456,18.002,7.456c0.004,0,0.009,0,0.013,0 c6.805-0.003,13.2-2.658,18.008-7.475L170.607,389.952 M106.016,245.849c3.217,0.622,7.234,1.532,11.752,2.842 c2.61,0.758,5.425,0.059,7.38-1.827c1.955-1.887,2.752-4.676,2.088-7.311c-5.239-20.797-1.271-43.678,1.185-54.288 c3.96,1.11,9.443,2.855,15.529,5.399c2.692,1.124,5.793,0.605,7.972-1.336s3.05-4.961,2.241-7.765 c-3.606-12.496-3.126-27.382,1.428-44.243c3.023-11.195,7.158-20.694,10.159-26.799c5.349,3.109,13.783,8.552,21.923,16.051 c2.248,2.072,5.522,2.591,8.301,1.317c2.779-1.274,4.522-4.093,4.419-7.149c-0.912-27.247,16.647-54.285,25.247-65.824 c6.771,6.158,17.902,17.679,25.389,32.596c0.844,1.682,2.26,2.918,3.914,3.596c-6.804,9.378-14.889,22.507-20.218,37.733 c-1.752-2.436-3.264-4.377-4.37-5.744c-1.814-2.243-4.515-3.663-7.411-3.895c-2.976-0.235-5.995,0.784-8.259,2.811 c-9.948,8.906-40.029,38.544-44.688,74.59c-2.823-1.593-5.272-2.861-7.212-3.815c-2.733-1.347-5.903-1.476-8.696-0.351 c-2.793,1.124-4.99,3.411-6.029,6.278c-3.53,9.741-14.194,43.498-6.256,75.755c-3.152,11.107-4.609,23.169-2.878,35.628 c0.245,1.761,0.546,3.5,0.9,5.198c-2.278,4.484-3.748,8.733-4.643,12.712l-2.198,2.198c-3.702-1.891-7.309-4.635-10.764-8.219 C100.998,299.978,103.693,261.965,106.016,245.849z M175.595,217.34c-0.63,0.444-1.217,0.955-1.746,1.536 c-4.162,4.57-12.283,14.204-19.726,27.071c0.471-15.337,4.012-29.125,6.55-37.168c3.28,1.788,7.53,4.274,12.183,7.421 C173.699,216.771,174.633,217.144,175.595,217.34z M45.519,493.807c-1.943,1.947-4.527,3.019-7.277,3.02c-0.002,0-0.004,0-0.005,0 c-2.748,0-5.332-1.07-7.275-3.013l-12.79-12.79c-1.943-1.943-3.013-4.527-3.013-7.275s1.07-5.332,3.013-7.274l8.317-8.317 l27.332,27.332L45.519,493.807z M64.538,474.751L37.217,447.43l12.408-12.408l27.309,27.309L64.538,474.751z M87.651,451.593 l-27.299-27.299l19.112-19.112l27.28,27.28L87.651,451.593z M117.462,421.724l-27.27-27.27l12.408-12.408l27.258,27.258 L117.462,421.724z M140.576,398.566l-27.248-27.247l22.198-22.198c0.167,0.612,0.34,1.207,0.522,1.774 c2.956,9.203,8.155,14.542,8.691,15.073l0.002,0.002c0,0,0.001,0,0.001,0.001l0.001,0.001c0.572,0.577,5.713,5.586,14.574,8.573 c1.21,0.408,2.536,0.784,3.953,1.11c0.046,0.011,0.09,0.024,0.136,0.035L140.576,398.566z M160.278,358.525 c-0.115-0.06-0.226-0.12-0.338-0.18c-0.109-0.059-0.218-0.117-0.324-0.176c-0.146-0.081-0.289-0.162-0.427-0.243 c-0.054-0.032-0.108-0.063-0.161-0.094c-1.864-1.102-3.036-2.109-3.43-2.468c-0.004-0.003-0.009-0.008-0.012-0.011 c-0.027-0.024-0.046-0.042-0.065-0.06c-0.01-0.009-0.02-0.019-0.027-0.026c-0.453-0.481-4.106-4.525-5.62-11.312 c-0.003-0.014-0.006-0.028-0.009-0.042c-0.135-0.607-0.252-1.236-0.349-1.887c-0.005-0.035-0.008-0.072-0.013-0.106 c-0.073-0.505-0.124-1.03-0.17-1.56c-0.023-0.279-0.043-0.561-0.058-0.846c-0.016-0.292-0.021-0.592-0.028-0.891 c-0.013-0.617-0.006-1.249,0.023-1.896c0.009-0.201,0.016-0.401,0.029-0.604c0.028-0.426,0.065-0.859,0.114-1.297 c0.022-0.2,0.052-0.404,0.078-0.606c0.541-4.18,2.01-8.899,4.964-14.097c0.966-1.7,1.238-3.707,0.76-5.603 c-0.522-2.071-0.946-4.262-1.258-6.511c-1.471-10.583-0.122-20.942,2.72-30.54c0.189-0.46,0.332-0.939,0.428-1.432 c5.929-18.892,17.517-34.664,24.561-43.05c2.459,3.038,5.601,7.18,8.862,12.162c1.641,2.506,4.602,3.815,7.56,3.332 c2.957-0.479,5.355-2.654,6.12-5.55c2.117-8.013,11.712-35.137,47.968-57.83c1.708,4.34,3.834,10.389,5.655,17.521 c0.772,3.024,3.319,5.266,6.417,5.651c3.095,0.381,6.114-1.169,7.602-3.914c1.278-2.358,2.799-4.728,4.52-7.044 c19.341-26.025,55.706-32.465,72.371-34.052c-1.588,16.667-8.029,53.032-34.052,72.371c-2.5,1.858-5.027,3.465-7.509,4.777 c-2.782,1.47-4.368,4.505-3.985,7.629c0.383,3.123,2.654,5.686,5.709,6.442c7.557,1.868,13.981,4.116,18.555,5.915 c-2.303,3.611-5.577,8.382-9.733,13.526c-2.965,3.672-6.072,7.154-9.237,10.348c-4.858,4.906-9.918,9.202-15.038,12.77 c-7.748,5.398-15.754,9.212-23.796,11.337c-2.896,0.764-5.071,3.163-5.55,6.12s0.826,5.919,3.332,7.56 c4.984,3.263,9.125,6.405,12.162,8.863c-8.296,6.968-23.823,18.381-42.444,24.366c-0.456,0.099-0.898,0.239-1.324,0.417 c-9.796,2.987-20.408,4.436-31.253,2.927c-3.371-0.468-6.548-1.171-9.442-2.089c-1.938-0.613-4.042-0.424-5.84,0.526 C175.953,364.123,165.839,361.403,160.278,358.525z M293.705,338.735c0.453-0.412,0.855-0.867,1.226-1.342 c0.213,0.61,0.496,1.201,0.869,1.752c3.146,4.65,5.633,8.9,7.422,12.182c-7.734,2.44-20.82,5.825-35.49,6.492 C280.047,350.554,289.266,342.777,293.705,338.735z M434.269,245.549c0.94-1.583,1.474-3.386,1.513-5.24 c0.062-2.974-1.15-5.858-3.324-7.911c-3.251-3.07-10.526-9.544-20.49-16.098c27.453-15.771,44.523-43.913,49.6-53.179 c1.467-2.677,1.732-5.841,0.73-8.683c-1.001-2.837-3.188-5.129-6-6.289c-5.347-2.206-14.94-5.738-26.915-8.301 c15.689-25.385,18.587-55.556,19.114-65.122c0.167-3.042-0.958-6.007-3.086-8.135c-2.129-2.129-5.092-3.253-8.138-3.087 c-9.565,0.525-39.735,3.424-65.12,19.113c-2.563-11.976-6.095-21.569-8.301-26.914c-1.161-2.813-3.452-5-6.289-6 c-2.842-1.001-6.007-0.737-8.683,0.73c-4.305,2.359-11.047,6.376-18.716,12.118c-3.353,2.511-4.037,7.265-1.526,10.619 c2.511,3.353,7.264,4.036,10.619,1.526c4.737-3.547,9.094-6.362,12.438-8.379c2.456,6.746,5.882,17.78,7.503,30.44 c0.351,2.741,2.165,5.075,4.734,6.091c2.567,1.013,5.488,0.554,7.619-1.205c20.134-16.624,47.96-21.291,61.399-22.594 c-1.303,13.441-5.971,41.266-22.594,61.399c-1.76,2.131-2.221,5.05-1.204,7.62c1.016,2.569,3.349,4.382,6.09,4.734 c12.661,1.621,23.696,5.047,30.443,7.503c-7.612,12.641-25.836,38.418-52.554,48.115c-2.834,1.028-4.789,3.637-4.982,6.645 c-0.193,3.008,1.414,5.845,4.093,7.227c11.386,5.872,20.542,12.998,25.986,17.7c-9.816,7.875-31.124,22.883-55.146,26.879 c-3.191,0.53-5.694,3.027-6.234,6.216s1.002,6.37,3.84,7.922c6.212,3.396,11.317,6.864,14.907,9.518 c-3.653,3.815-9.101,9.104-15.878,14.498c-3.278,2.608-3.82,7.381-1.211,10.659c1.498,1.882,3.708,2.861,5.94,2.861 c1.655,0,3.323-0.539,4.719-1.65c9.959-7.926,17.323-15.672,20.827-19.585c2.026-2.264,3.05-5.275,2.809-8.26 c-0.234-2.895-1.654-5.596-3.895-7.409c-1.366-1.105-3.308-2.618-5.745-4.371c15.227-5.329,28.356-13.413,37.734-20.218 c0.678,1.655,1.914,3.071,3.596,3.915c14.918,7.488,26.437,18.618,32.596,25.389c-11.539,8.599-38.554,26.196-65.825,25.245 c-3.055-0.118-5.875,1.642-7.149,4.42c-1.275,2.779-0.756,6.053,1.316,8.302c7.498,8.139,12.942,16.573,16.052,21.923 c-6.106,3.002-15.605,7.137-26.799,10.16c-16.862,4.552-31.747,5.033-44.242,1.427c-2.804-0.809-5.824,0.061-7.766,2.241 c-1.942,2.179-2.462,5.278-1.337,7.971c2.542,6.086,4.289,11.571,5.398,15.531c-10.61,2.455-33.494,6.422-54.288,1.185 c-2.636-0.666-5.423,0.131-7.311,2.088c-1.887,1.956-2.584,4.771-1.827,7.381c1.31,4.517,2.22,8.533,2.842,11.75 c-16.116,2.323-54.128,5.019-76.136-16.208c-3.641-3.512-6.417-7.179-8.31-10.944l3.984-3.992c2.532-0.734,5.159-1.697,7.88-2.965 c2.836,0.751,5.823,1.346,8.918,1.777c12.774,1.774,25.131,0.197,36.467-3.121c7.914,1.814,15.897,2.546,23.575,2.546 c23.208,0,43.613-6.551,50.758-9.14c2.865-1.037,5.153-3.234,6.278-6.027c1.125-2.792,0.998-5.962-0.348-8.696 c-0.956-1.942-2.224-4.392-3.817-7.214c6.952-0.896,14.037-2.779,21.179-5.635c3.89-1.556,5.782-5.97,4.226-9.86 c-1.555-3.889-5.967-5.781-9.86-4.226c-9.405,3.761-18.566,5.486-27.205,5.109c-0.4-0.017-0.79-0.042-1.18-0.066 c-2.045-0.131-4.005,0.584-5.49,1.897c-0.385-2.432-1.604-4.693-3.493-6.357c0,0,0,0-0.001,0c-1.354-1.193-3.377-2.918-5.966-4.96 c4.922-2.302,9.772-5.114,14.513-8.417c5.872-4.092,11.64-8.984,17.143-14.54c3.525-3.558,6.977-7.425,10.262-11.494 c6.843-8.471,11.544-16.068,13.737-19.842c1.532-2.639,1.878-5.796,0.947-8.661c-0.929-2.861-3.058-5.208-5.84-6.438 c-2.309-1.021-5.87-2.508-10.376-4.109c30.675-26.337,35.526-71.705,36.283-85.458c0.167-3.042-0.958-6.008-3.087-8.137 c-2.128-2.127-5.092-3.257-8.137-3.086c-13.707,0.754-58.822,5.575-85.196,35.979c-1.487-4.114-2.847-7.364-3.789-9.492 c-1.231-2.782-3.578-4.911-6.439-5.839c-2.864-0.929-6.02-0.585-8.66,0.948c-9.914,5.76-40.004,25.176-54.29,55.657 c-2.043-2.59-3.768-4.614-4.962-5.97c-1.899-2.156-4.571-3.442-7.394-3.605c1.6-1.524,2.492-3.688,2.351-5.954 c-0.025-0.39-0.049-0.78-0.066-1.178c-1.353-31.522,24.643-60.2,36.858-71.867c2.655,3.593,6.126,8.701,9.52,14.909 c1.552,2.838,4.733,4.383,7.922,3.84c3.19-0.539,5.686-3.043,6.216-6.234c3.996-24.02,19.004-45.329,26.88-55.146 c4.701,5.444,11.827,14.599,17.7,25.987c1.382,2.679,4.217,4.294,7.227,4.092c3.008-0.193,5.616-2.148,6.645-4.982 c2.591-7.14,6.554-14.214,11.778-21.026c2.55-3.325,1.922-8.086-1.402-10.635s-8.087-1.923-10.635,1.403 c-2.859,3.729-5.405,7.541-7.624,11.416c-6.554-9.962-13.026-17.234-16.094-20.484c-2.053-2.174-4.937-3.36-7.911-3.324 c-1.854,0.039-3.656,0.573-5.239,1.512c6.295-29.272,34.008-51.438,47.282-60.57c2.59,5.334,5.939,13.201,8.49,22.568 c0.705,2.588,2.725,4.611,5.311,5.321c2.585,0.708,5.355,0.001,7.283-1.865c20.118-19.471,50.494-25.112,64.567-26.715 c0.057,0.793,0.123,1.599,0.19,2.419c0.728,8.892,1.634,19.959-7.139,36.194c-1.817,3.361-0.849,7.55,2.258,9.774 c3.107,2.223,7.383,1.79,9.981-1.014c19.365-20.911,53.509-26.606,71.632-28.148c-1.541,18.123-7.236,52.264-28.148,71.631 c-2.804,2.597-3.239,6.873-1.014,9.981c2.224,3.108,6.412,4.075,9.775,2.258c16.233-8.772,27.298-7.866,36.191-7.138 c0.821,0.067,1.627,0.133,2.42,0.19c-1.602,14.074-7.242,44.449-26.715,64.568c-1.865,1.927-2.574,4.696-1.864,7.283 s2.733,4.606,5.321,5.311c9.364,2.55,17.232,5.899,22.567,8.49C485.707,211.542,463.541,239.255,434.269,245.549z"></path></svg>