<?xml version="1.0" standalone="no"?>
<!DOCTYPE svg PUBLIC "-//W3C//DTD SVG 20010904//EN"
 "http://www.w3.org/TR/2001/REC-SVG-20010904/DTD/svg10.dtd">
<svg version="1.0" xmlns="http://www.w3.org/2000/svg"
 width="700.000000pt" height="700.000000pt" viewBox="0 0 700.000000 700.000000"
 preserveAspectRatio="xMidYMid meet">
<metadata>
Created by potrace 1.14, written by Peter Selinger 2001-2017
</metadata>
<g transform="translate(0.000000,700.000000) scale(0.100000,-0.100000)"
fill="#000000" stroke="none">
<path d="M4246 6984 c-148 -83 -413 -315 -536 -469 -84 -105 -220 -335 -220
-372 0 -25 -18 -12 -62 45 -66 83 -245 258 -283 276 -18 9 -54 16 -79 16 -43
0 -51 -4 -94 -47 -64 -64 -187 -251 -262 -398 -64 -126 -130 -307 -151 -412
-6 -35 -13 -63 -14 -63 -2 0 -52 31 -112 69 -108 68 -169 94 -208 86 -11 -2
-25 -4 -32 -4 -32 -2 -79 -62 -124 -156 -130 -274 -199 -550 -199 -794 0 -97
-2 -112 -15 -107 -49 18 -135 35 -160 30 -46 -8 -87 -36 -109 -73 -19 -34 -60
-213 -70 -312 -4 -30 -9 -76 -12 -104 -8 -65 -7 -287 1 -326 7 -30 7 -30 -29
-24 -77 15 -114 10 -157 -21 -56 -39 -69 -77 -86 -254 -9 -95 -10 -323 -1
-415 26 -260 104 -470 237 -638 53 -67 85 -98 171 -166 l25 -19 -800 -801
c-908 -908 -860 -852 -860 -1006 1 -132 24 -174 184 -335 143 -143 195 -175
302 -186 75 -7 157 12 218 51 20 13 393 381 830 818 l794 795 42 -56 c134
-180 379 -316 654 -363 224 -38 598 -30 730 15 52 18 94 82 94 140 -1 25 -4
59 -8 76 -7 32 -7 32 25 25 39 -9 283 -9 336 -1 22 3 62 8 89 11 115 13 280
50 318 73 66 38 85 108 58 208 -11 38 -19 70 -18 71 1 1 61 3 132 4 254 5 498
69 782 204 103 50 143 90 148 152 4 53 -9 84 -87 207 -38 60 -67 110 -66 111
2 2 19 6 38 9 217 34 571 205 797 385 82 65 104 129 69 203 -20 41 -215 239
-294 298 l-54 40 27 10 c252 96 522 320 746 620 87 117 112 167 106 216 -7 68
-36 97 -150 152 -56 27 -119 55 -139 61 -21 7 -38 16 -38 20 0 4 18 35 41 70
36 55 90 162 143 282 59 134 130 467 130 606 0 92 -53 141 -159 149 -118 9
-258 11 -298 3 -21 -3 -36 -4 -35 0 85 162 158 373 184 531 3 19 8 38 9 41 2
3 7 32 10 65 4 32 8 61 10 64 5 8 19 181 17 218 -2 69 -67 134 -135 135 -18 0
-66 -3 -109 -6 -274 -24 -574 -102 -754 -198 l-51 -27 0 131 c0 260 -14 311
-90 348 -35 17 -54 19 -105 14 -323 -33 -636 -135 -866 -282 -53 -34 -67 -34
-73 0 -1 4 -3 10 -4 15 -2 4 -6 17 -10 29 -19 57 -103 209 -125 225 -36 26
-117 33 -154 12z"/>
</g>
</svg>
